# xmcd
#
# Track frame offsets:
#	150
#	17920
#	34040
#	51954
#	67119
#	86922
#	105695
#	124330
#	140777
#	160084
#	177744
#	196638
#	213581
#
# Disc length: 3090 seconds
#
# Revision: 0
# Processed by: cddbd v1.5.2PL0 Copyright (c) Steve Scherf et al.
# Submitted via: EasyCDDAExtractor 12.0.0.1
#
DISCID=c60c100d
DTITLE=이승철 - 0_Mutopia (The Land Of Dreams) (Mnet-2009)
DYEAR=209
DGENRE=Ffp
TTITLE0=손톱이 빠져서
TTITLE1=In The Love
TTITLE2=뒤돌아보면
TTITLE3=Reggae Night
TTITLE4=너 때문에 눈물 흘린다
TTITLE5=사랑아
TTITLE6=얼마나 더 울어야해
TTITLE7=Love Is
TTITLE8=넌 잊었는지
TTITLE9=My Girl
TTITLE10=듣고있나요
TTITLE11=그런 사람 또 없습니다
TTITLE12=Moving Star
EXTD=
EXTT0=
EXTT1=
EXTT2=
EXTT3=
EXTT4=
EXTT5=
EXTT6=
EXTT7=
EXTT8=
EXTT9=
EXTT10=
EXTT11=
EXTT12=
PLAYORDER=
